<svg width="191.189990234375px" height="100.4099609375px" xmlns="http://www.w3.org/2000/svg" viewBox="154.4050048828125 24.79501953125 191.189990234375 100.4099609375" style="background: none;" preserveAspectRatio="xMidYMid"><defs><linearGradient id="editing-outline-gradient" x1="1.4993908270190959" x2="-0.49939082701909576" y1="0.5348994967025009" y2="0.4651005032974991"><stop offset="0" stop-color="#008080"></stop><stop offset="1" stop-color="#008080"></stop></linearGradient><filter id="editing-outline" x="-100%" y="-100%" width="300%" height="300%"><feMorphology in="SourceGraphic" operator="dilate" radius="6" result="outline"></feMorphology><feComposite operator="out" in="outline" in2="SourceAlpha"></feComposite></filter></defs><g filter="url(#editing-outline)"><g transform="translate(186.878746509552, 94.125)"><path d="M11.99 1.02L11.99 1.02L11.99 1.02Q0.77 1.02 0.77-9.54L0.77-9.54L0.77-9.54Q0.77-17.03 4.90-21.88L4.90-21.88L4.90-21.88Q9.28-27.03 16.88-27.03L16.88-27.03L16.88-27.03Q22.39-27.03 25.19-24.48L25.19-24.48L25.19-24.48Q28.00-21.93 28.00-16.58L28.00-16.58L28.00-16.58Q28.00-8.42 23.61-3.67L23.61-3.67L23.61-3.67Q19.33 1.02 11.99 1.02ZM13.31-21.17L13.31-21.17L13.31-21.17Q12.70-19.79 12.21-17.72L12.21-17.72L12.21-17.72Q11.73-15.66 11.12-12.39L11.12-12.39L11.12-12.39Q10.51-9.13 10.51-5.10L10.51-5.10L10.51-5.10Q10.51-3.77 10.94-2.91L10.94-2.91L10.94-2.91Q11.37-2.04 12.55-2.04L12.55-2.04L12.55-2.04Q13.72-2.04 14.46-2.60L14.46-2.60L14.46-2.60Q15.20-3.16 15.76-4.49L15.76-4.49L15.76-4.49Q16.78-6.83 17.60-11.19L17.60-11.19L17.60-11.19Q18.41-15.56 18.49-17.44L18.49-17.44L18.49-17.44Q18.56-19.33 18.56-20.73L18.56-20.73L18.56-20.73Q18.56-22.13 18.16-23.05L18.16-23.05L18.16-23.05Q17.75-23.97 16.60-23.97L16.60-23.97L16.60-23.97Q15.45-23.97 14.69-23.26L14.69-23.26L14.69-23.26Q13.92-22.54 13.31-21.17ZM67.73 1.02L67.73 1.02L67.73 1.02Q61.56 1.02 61.56-3.77L61.56-3.77L61.56-3.77Q61.56-5.87 62.45-9.92L62.45-9.92L62.45-9.92Q63.34-13.97 63.65-15.61L63.65-15.61L63.65-15.61Q64.36-19.33 64.36-20.50L64.36-20.50L64.36-20.50Q64.36-23.10 62.42-23.10L62.42-23.10L62.42-23.10Q61.15-23.10 59.93-21.34L59.93-21.34L59.93-21.34Q58.70-19.58 58.14-16.07L58.14-16.07L54.98 0L45.03 1.02L47.79-12.85L47.79-12.85Q48.25-15.15 48.65-17.75L48.65-17.75L48.65-17.75Q49.06-20.35 49.06-20.76L49.06-20.76L49.06-20.76Q49.06-23.10 47.33-23.10L47.33-23.10L47.33-23.10Q46.16-23.10 44.88-21.37L44.88-21.37L44.88-21.37Q43.61-19.64 42.89-16.07L42.89-16.07L39.78 0L29.73 1.02L35.09-26.01L43.40-27.03L42.53-21.88L42.53-21.88Q43.86-24.63 46.31-25.83L46.31-25.83L46.31-25.83Q48.76-27.03 52.58-27.03L52.58-27.03L52.58-27.03Q54.77-27.03 56.20-25.96L56.20-25.96L56.20-25.96Q57.63-24.89 58.09-23.15L58.09-23.15L58.09-23.15Q58.96-24.94 61.17-25.98L61.17-25.98L61.17-25.98Q63.39-27.03 66.12-27.03L66.12-27.03L66.12-27.03Q68.85-27.03 70.20-26.44L70.20-26.44L70.20-26.44Q71.55-25.86 72.37-24.89L72.37-24.89L72.37-24.89Q73.75-23.10 73.75-19.84L73.75-19.84L73.75-19.84Q73.75-16.63 72.37-9.95L72.37-9.95L72.37-9.95Q71.66-6.68 71.66-5.48L71.66-5.48L71.66-5.48Q71.66-4.28 72.34-3.57L72.34-3.57L72.34-3.57Q73.03-2.86 74.05-2.75L74.05-2.75L74.05-2.75Q73.54-1.02 71.78 0L71.78 0L71.78 0Q70.02 1.02 67.73 1.02ZM99.55 1.02L99.55 1.02L99.55 1.02Q93.38 1.02 93.38-3.77L93.38-3.77L93.38-3.77Q93.43-5.10 93.84-7.34L93.84-7.34L94.76-12.04L94.76-12.04Q96.14-18.67 96.14-20.15L96.14-20.15L96.14-20.15Q96.14-23.10 94.40-23.10L94.40-23.10L94.40-23.10Q91.49-23.10 89.96-15.50L89.96-15.50L86.96 0L76.70 1.02L82.01-26.06L90.37-27.03L89.56-22.03L89.56-22.03Q91.95-27.03 99.30-27.03L99.30-27.03L99.30-27.03Q102.87-27.03 104.37-25.53L104.37-25.53L104.37-25.53Q105.88-24.02 105.88-20.66L105.88-20.66L105.88-20.66Q105.88-17.49 104.24-10.10L104.24-10.10L104.24-10.10Q103.48-6.78 103.48-5.53L103.48-5.53L103.48-5.53Q103.48-4.28 104.17-3.57L104.17-3.57L104.17-3.57Q104.86-2.86 105.88-2.75L105.88-2.75L105.88-2.75Q105.37-1.02 103.61 0L103.61 0L103.61 0Q101.85 1.02 99.55 1.02ZM122.20-2.81L122.20-2.81L122.20-2.81Q120.62 1.02 115.57 1.02L115.57 1.02L115.57 1.02Q112.97 1.02 111.33-0.77L111.33-0.77L111.33-0.77Q109.96-2.35 109.96-3.93L109.96-3.93L109.96-3.93Q109.96-8.06 111.84-16.12L111.84-16.12L113.73-26.01L124.08-27.03L120.97-10.91L120.97-10.91Q120.11-7.14 120.11-5.81L120.11-5.81L120.11-5.81Q120.11-2.91 122.20-2.81ZM114.65-33.10L114.65-33.10L114.65-33.10Q114.65-35.09 116.31-36.16L116.31-36.16L116.31-36.16Q117.96-37.23 120.36-37.23L120.36-37.23L120.36-37.23Q122.76-37.23 124.21-36.16L124.21-36.16L124.21-36.16Q125.66-35.09 125.66-33.10L125.66-33.10L125.66-33.10Q125.66-31.11 124.06-30.09L124.06-30.09L124.06-30.09Q122.45-29.07 120.05-29.07L120.05-29.07L120.05-29.07Q117.66-29.07 116.15-30.09L116.15-30.09L116.15-30.09Q114.65-31.11 114.65-33.10Z" fill="url(#editing-outline-gradient)"></path></g></g><style>text {
  font-size: 64px;
  font-family: Arial Black;
  dominant-baseline: central;
  text-anchor: middle;
}</style></svg>