<svg width="210" height="65" xmlns="http://www.w3.org/2000/svg" preserveAspectRatio="xMidYMid">
 <defs>
  <linearGradient gradientUnits="objectBoundingBox" y2="0.5" y1="0.5" x2="1" x1="0" id="editing-gradient-gradient">
   <stop stop-color="#00d3ff" offset="0"/>
   <stop stop-color="#005689" offset="1"/>
  </linearGradient>
 </defs>
 <style>text {
  font-size: 64px;
  font-family: Arial Black;
  dominant-baseline: central;
  text-anchor: middle;
}</style>
 <g>
  <title>background</title>
  <rect fill="none" id="canvas_background" height="67" width="212" y="-1" x="-1"/>
 </g>
 <g>
  <title>Layer 1</title>
  <g id="svg_1">
   <g id="svg_2">
    <path id="svg_3" fill="url(#editing-gradient-gradient)" d="m64.372482,29.110001l0,10.569992l0,0q0,5.050018 -1.740005,9.290009l0,0l0,0q-1.729996,4.25 -4.820007,7.330002l0,0l0,0q-3.079987,3.089996 -7.309998,4.800003l0,0l0,0q-4.220001,1.720001 -9.199997,1.720001l0,0l-13.580002,0l0,0q-4.970001,0 -9.220001,-1.720001l0,0l0,0q-4.23999,-1.710007 -7.319992,-4.800003l0,0l0,0q-3.089996,-3.080002 -4.850006,-7.330002l0,0l0,0q-1.75,-4.23999 -1.75,-9.290009l0,0l0,-10.569992l0,0q0,-5.020004 1.75,-9.279999l0,0l0,0q1.76001,-4.259995 4.850006,-7.330002l0,0l0,0q3.080002,-3.069992 7.319992,-4.799988l0,0l0,0q4.25,-1.740005 9.220001,-1.740005l0,0l13.580002,0l0,0q4.979996,0 9.199997,1.740005l0,0l0,0q4.230011,1.729996 7.309998,4.799988l0,0l0,0q3.090012,3.070007 4.820007,7.330002l0,0l0,0q1.740005,4.259995 1.740005,9.279999l0,0zm-10.030014,10.569992l0,-10.569992l0,0q0,-2.970001 -0.949982,-5.37999l0,0l0,0q-0.940002,-2.410004 -2.660004,-4.130005l0,0l0,0q-1.710007,-1.720001 -4.12001,-2.660004l0,0l0,0q-2.419998,-0.949997 -5.309998,-0.949997l0,0l-13.580002,0l0,0q-2.929993,0 -5.339996,0.949997l0,0l0,0q-2.410004,0.940002 -4.149994,2.660004l0,0l0,0q-1.730011,1.720001 -2.680008,4.130005l0,0l0,0q-0.940002,2.409988 -0.940002,5.37999l0,0l0,10.569992l0,0q0,2.970001 0.940002,5.380005l0,0l0,0q0.949997,2.410004 2.680008,4.130005l0,0l0,0q1.73999,1.709991 4.149994,2.660004l0,0l0,0q2.410004,0.940002 5.339996,0.940002l0,0l13.5,0l0,0q2.940002,0 5.350006,-0.940002l0,0l0,0q2.410004,-0.950012 4.139999,-2.660004l0,0l0,0q1.740005,-1.720001 2.680008,-4.130005l0,0l0,0q0.949982,-2.410004 0.949982,-5.380005l0,0zm56.050018,-5.289993l0,27.660004l-10.029999,0l0,-27.660004l0,0q0,-1.969986 -1.040009,-2.990005l0,0l0,0q-1.040009,-1.019989 -3.089996,-1.019989l0,0l-13.040009,0l0,31.669998l-10.029999,0l0,-36.720001l0,0q0,-1.039993 0.389999,-1.949997l0,0l0,0q0.389999,-0.910004 1.080002,-1.580002l0,0l0,0q0.690002,-0.680008 1.619995,-1.059998l0,0l0,0q0.930008,-0.389999 1.970001,-0.389999l0,0l18.089996,0l0,0q2.080017,0 4.470001,0.729996l0,0l0,0q2.390015,0.740005 4.549988,2.360001l0,0l0,-3.089996l13.580017,0l0,0q1.429993,0 3.01001,0.330002l0,0l0,0q1.579987,0.330002 3.149994,1.020004l0,0l0,0q1.559998,0.699982 2.980011,1.799988l0,0l0,0q1.429993,1.089996 2.51001,2.660004l0,0l0,0q1.079956,1.559998 1.73999,3.600006l0,0l0,0q0.649994,2.049988 0.649994,4.62999l0,0l0,27.660004l-10.029999,0l0,-27.660004l0,0q0,-1.969986 -0.980011,-2.990005l0,0l0,0q-0.980011,-1.019989 -3.029999,-1.019989l0,0l-9.019989,0l0,0q0.5,1.850006 0.5,4.009995l0,0zm77.999969,4.520004l0,23.139999l-10.029968,0l0,-23.139999l0,0q0,-1.970001 -0.679993,-3.529999l0,0l0,0q-0.670013,-1.570007 -1.830017,-2.679993l0,0l0,0q-1.160004,-1.12001 -2.720001,-1.720001l0,0l0,0q-1.559998,-0.600006 -3.380005,-0.600006l0,0l-17.549988,0l0,31.669998l-10.029999,0l0,-36.720001l0,0q0,-1.039993 0.390015,-1.949997l0,0l0,0q0.379974,-0.910004 1.079956,-1.580002l0,0l0,0q0.690002,-0.680008 1.620026,-1.059998l0,0l0,0q0.920013,-0.389999 1.970001,-0.389999l0,0l22.599976,0l0,0q1.890015,0 3.990021,0.429993l0,0l0,0q2.110016,0.420013 4.170013,1.360001l0,0l0,0q2.059998,0.949997 3.929993,2.400009l0,0l0,0q1.869995,1.440002 3.320007,3.509995l0,0l0,0q1.449982,2.059998 2.299988,4.759995l0,0l0,0q0.849976,2.700012 0.849976,6.100006l0,0zm18.970032,-36.190002l0,9.070007l-10.030029,0l0,-9.070007l10.030029,0zm0,17.630005l0,41.699997l-10.030029,0l0,-41.699997l10.030029,0z"/>
   </g>
  </g>
 </g>
</svg>